<?xml version="1.0" standalone="no"?>
<!DOCTYPE svg PUBLIC "-//W3C//DTD SVG 20010904//EN"
 "http://www.w3.org/TR/2001/REC-SVG-20010904/DTD/svg10.dtd">
<svg version="1.0" xmlns="http://www.w3.org/2000/svg"
 width="212.000000pt" height="169.000000pt" viewBox="0 0 212.000000 169.000000"
 preserveAspectRatio="xMidYMid meet">

<g transform="translate(0.000000,169.000000) scale(0.100000,-0.100000)"
fill="#000000" stroke="none">
<path d="M278 1655 c-7 -7 60 -135 71 -135 4 0 18 22 31 50 13 27 31 57 41 66
16 14 18 14 29 -6 11 -21 9 -54 -6 -93 -6 -16 -1 -18 57 -15 60 3 64 5 68 28
3 24 2 24 -16 7 -27 -24 -53 -22 -53 4 0 16 4 19 20 14 16 -5 20 -2 20 19 0
28 -9 33 -28 14 -9 -9 -12 -7 -12 10 0 24 28 30 47 11 8 -8 13 -8 17 0 15 23
-9 31 -95 31 -88 0 -89 0 -89 -24 0 -45 -32 -47 -35 -3 -1 17 -9 23 -31 25
-16 2 -32 0 -36 -3z"/>
<path d="M585 1640 c-9 -27 0 -36 20 -20 21 17 29 -8 17 -53 -12 -42 -8 -47
29 -47 29 0 46 14 29 25 -13 8 -13 85 -1 85 6 0 13 -4 16 -10 11 -18 26 -10
23 13 -3 20 -9 22 -65 25 -55 3 -62 1 -68 -18z"/>
<path d="M735 1590 l0 -71 60 3 c55 3 60 5 64 28 3 24 2 24 -16 7 -24 -21 -49
-22 -56 -2 -7 16 8 29 22 20 13 -8 24 13 17 32 -5 12 -9 13 -20 4 -10 -8 -16
-9 -21 -1 -16 26 29 42 53 18 9 -9 12 -7 12 10 0 20 -5 22 -57 22 l-58 0 0
-70z"/>
<path d="M877 1593 l1 -68 31 -3 c29 -3 30 -2 25 27 -8 40 8 40 23 1 9 -23 17
-30 38 -30 23 0 25 3 20 23 -4 12 -13 28 -20 36 -10 10 -11 18 -2 32 18 30 -7
49 -67 49 l-51 0 2 -67z m73 27 c0 -11 -4 -20 -10 -20 -5 0 -10 9 -10 20 0 11
5 20 10 20 6 0 10 -9 10 -20z"/>
<path d="M1038 1654 c-3 -3 -1 -18 5 -35 8 -21 8 -37 0 -58 -13 -35 -9 -41 28
-41 29 0 46 14 29 25 -5 3 -10 24 -10 45 0 21 5 42 10 45 17 11 0 25 -29 25
-15 0 -30 -3 -33 -6z"/>
<path d="M1125 1590 c0 -67 1 -70 23 -70 21 0 23 3 17 30 -9 39 5 38 50 -1 20
-18 37 -30 39 -28 2 2 6 34 9 72 5 65 4 67 -19 67 -24 0 -32 -14 -14 -25 6 -3
10 -10 10 -16 0 -17 -26 -9 -50 16 -13 14 -33 25 -44 25 -19 0 -21 -6 -21 -70z"/>
<path d="M1334 1643 c-3 -10 -15 -38 -27 -63 -12 -25 -23 -48 -25 -52 -2 -5 8
-8 23 -8 19 0 26 4 22 14 -6 15 19 30 34 20 5 -3 9 -11 9 -19 0 -10 18 -14 75
-13 l74 0 -6 29 c-7 38 9 37 24 -1 9 -23 17 -30 38 -30 23 0 25 3 20 23 -4 12
-13 28 -20 36 -10 10 -11 18 -2 32 19 30 -7 49 -67 49 l-52 0 4 -60 c6 -79
-13 -80 -53 -2 -31 59 -61 78 -71 45z m196 -23 c0 -11 -4 -20 -10 -20 -5 0
-10 9 -10 20 0 11 5 20 10 20 6 0 10 -9 10 -20z m-170 -30 c0 -5 -4 -10 -10
-10 -5 0 -10 5 -10 10 0 6 5 10 10 10 6 0 10 -4 10 -10z"/>
<path d="M1617 1653 c-4 -3 -2 -12 4 -20 7 -8 9 -32 6 -63 -6 -50 -6 -50 23
-50 30 0 47 14 30 25 -5 3 -10 24 -10 45 0 21 5 42 10 45 6 4 8 11 5 16 -7 10
-58 12 -68 2z"/>
<path d="M1750 1647 c0 -12 -24 -72 -48 -119 -2 -5 8 -8 23 -8 20 0 26 4 22
15 -4 8 -2 17 3 20 13 8 43 -9 38 -21 -1 -5 14 -10 35 -12 20 -2 37 -1 37 1 0
2 -15 33 -33 68 -23 45 -40 65 -55 67 -14 2 -22 -2 -22 -11z m30 -57 c0 -5 -7
-10 -16 -10 -8 0 -12 5 -9 10 3 6 10 10 16 10 5 0 9 -4 9 -10z"/>
<path d="M28 1440 c-16 -10 -18 -29 -18 -165 0 -100 4 -156 11 -161 18 -11
161 -13 201 -3 20 5 51 21 68 35 29 25 30 25 30 5 0 -11 8 -24 18 -29 25 -14
633 -14 649 0 7 6 13 26 13 44 0 33 1 34 41 34 36 0 40 -2 34 -20 -4 -13 0
-31 9 -45 14 -22 24 -25 76 -25 60 0 90 15 90 46 0 9 14 3 44 -18 37 -25 54
-31 98 -31 30 0 64 6 77 12 17 9 26 10 34 2 6 -6 38 -11 72 -11 34 0 66 5 72
11 8 8 17 8 30 0 21 -11 400 -16 427 -5 20 8 21 59 2 94 -12 21 -12 29 0 52
37 71 1 157 -74 178 -48 13 -178 13 -203 0 -16 -9 -19 -22 -20 -83 l0 -72 -30
65 c-43 93 -52 100 -120 100 -69 0 -73 -4 -114 -122 -15 -43 -32 -78 -37 -78
-19 0 -19 31 1 63 30 49 27 81 -10 108 -33 23 -110 36 -153 25 -14 -3 -41 -20
-61 -37 -32 -29 -35 -29 -35 -10 0 42 -32 48 -228 47 -150 -1 -185 -4 -192
-16 -5 -8 -10 -45 -10 -81 0 -70 -6 -79 -51 -79 -19 0 -20 5 -13 70 5 49 3 74
-6 85 -10 12 -49 14 -216 15 l-205 0 -6 -31 c-6 -30 -6 -30 -27 -11 -11 11
-31 25 -43 31 -32 16 -204 25 -225 11z m1432 -26 c44 -18 48 -30 25 -74 -15
-30 -38 -39 -50 -20 -10 17 -51 11 -69 -9 -35 -39 8 -90 59 -71 14 5 30 10 33
10 9 0 42 -54 42 -69 0 -19 -58 -41 -107 -41 -196 0 -192 279 4 289 13 0 41
-6 63 -15z m-1214 -13 c71 -32 96 -125 51 -192 -34 -52 -78 -69 -174 -69 l-83
0 0 140 0 140 83 0 c58 0 94 -6 123 -19z m322 -23 l3 -38 -50 0 c-28 0 -51 -4
-51 -10 0 -5 21 -10 48 -10 l48 0 -4 -40 -4 -41 -43 7 c-25 3 -45 2 -49 -4 -9
-14 27 -24 72 -20 25 2 37 -1 36 -10 -1 -6 -2 -26 -2 -42 l-2 -31 -107 3 -108
3 -1 138 -1 138 106 -3 106 -3 3 -37z m144 -53 l-4 -95 56 0 57 0 -3 -42 -3
-43 -102 -3 -103 -3 0 73 c0 40 -3 103 -7 141 l-6 67 60 0 59 0 -4 -95z m358
52 l0 -44 -56 5 c-41 3 -55 2 -50 -7 4 -6 28 -11 53 -11 37 0 44 -3 39 -16 -3
-9 -6 -27 -6 -40 0 -22 -4 -24 -45 -24 l-45 0 0 -50 0 -50 -55 0 -55 0 0 140
0 140 110 0 110 0 0 -43z m140 -87 c0 -71 0 -133 0 -137 0 -5 -25 -9 -55 -11
l-55 -3 0 141 0 140 55 0 55 0 0 -130z m524 83 c20 -40 86 -215 86 -229 0 -2
-27 -4 -59 -4 -43 0 -60 4 -65 15 -3 8 -16 15 -29 15 -14 0 -30 -7 -37 -15 -8
-10 -31 -15 -66 -15 -30 0 -54 2 -54 5 0 2 20 59 45 127 25 68 48 129 50 136
3 7 23 12 55 12 49 0 50 0 74 -47z m335 21 c38 -32 42 -78 9 -119 l-21 -27 21
-44 c12 -25 22 -49 22 -54 0 -6 -25 -10 -55 -10 -54 0 -54 0 -74 43 l-19 42
-1 -42 -1 -43 -55 0 -55 0 0 140 0 140 99 0 c92 0 102 -2 130 -26z"/>
<path d="M150 1280 c0 -67 8 -73 46 -35 27 27 26 59 -4 83 -33 25 -42 15 -42
-48z"/>
<path d="M1656 1293 c-12 -12 -6 -33 9 -33 8 0 15 6 15 14 0 17 -14 28 -24 19z"/>
<path d="M1950 1320 c0 -15 5 -20 18 -18 9 2 17 10 17 18 0 8 -8 16 -17 18
-13 2 -18 -3 -18 -18z"/>
<path d="M1060 1007 c57 -31 95 -43 86 -28 -8 13 -67 39 -105 47 -18 3 -11 -3
19 -19z"/>
<path d="M1023 940 c-4 -14 -14 -20 -34 -20 -19 0 -29 -5 -29 -15 0 -10 10
-15 29 -15 26 0 30 -4 33 -32 2 -21 8 -33 18 -33 10 0 16 12 18 33 3 28 7 32
33 32 19 0 29 5 29 15 0 10 -10 15 -29 15 -20 0 -30 6 -34 20 -3 11 -10 20
-17 20 -7 0 -14 -9 -17 -20z"/>
<path d="M705 940 c-17 -3 -25 -8 -19 -12 6 -4 31 -1 55 6 44 14 25 17 -36 6z"/>
<path d="M894 928 l-19 -23 23 19 c21 18 27 26 19 26 -2 0 -12 -10 -23 -22z"/>
<path d="M1371 921 c-8 -6 -9 -11 -3 -15 6 -3 14 -1 17 5 9 14 2 20 -14 10z"/>
<path d="M1348 843 c6 -2 18 -2 25 0 6 3 1 5 -13 5 -14 0 -19 -2 -12 -5z"/>
<path d="M675 830 c-10 -15 16 -22 58 -16 69 11 73 23 7 23 -33 1 -62 -3 -65
-7z"/>
<path d="M1246 813 c-4 -4 -49 -11 -99 -15 -301 -23 -457 -46 -457 -69 0 -6 6
-6 19 1 11 5 35 10 54 10 19 0 54 7 77 15 48 17 125 20 115 5 -3 -5 -15 -10
-26 -10 -10 0 -19 -5 -19 -11 0 -7 9 -9 23 -4 12 3 36 10 52 14 17 5 44 16 60
25 33 18 100 22 110 6 11 -17 64 -11 85 10 14 14 28 18 50 15 85 -14 95 -14
80 -6 -22 13 -114 23 -124 14z"/>
<path d="M1320 773 c8 -4 21 -14 28 -25 16 -22 36 -24 28 -3 -4 13 -2 14 14 5
11 -6 20 -7 20 -2 0 19 -27 32 -64 31 -23 0 -34 -3 -26 -6z"/>
<path d="M1085 760 c27 -12 35 -12 35 0 0 6 -12 10 -27 9 -25 0 -26 -1 -8 -9z"/>
<path d="M847 723 c-10 -9 -9 -41 1 -47 5 -3 9 8 10 24 1 32 -1 34 -11 23z"/>
<path d="M1085 710 c4 -13 -1 -24 -20 -36 -35 -23 -25 -29 14 -9 33 17 42 49
15 59 -12 4 -14 1 -9 -14z"/>
<path d="M724 709 c-34 -10 -61 -35 -50 -46 4 -4 10 -3 14 3 4 6 22 19 40 28
17 9 32 19 32 21 0 3 -1 5 -2 4 -2 0 -17 -5 -34 -10z"/>
<path d="M1230 711 c-8 -6 -18 -7 -22 -5 -4 3 -8 1 -8 -5 0 -5 5 -13 11 -16 5
-4 15 -18 20 -32 8 -22 12 -23 25 -12 15 12 14 15 -5 27 -16 11 -18 18 -10 33
11 21 10 22 -11 10z"/>
<path d="M1285 711 c-6 -11 25 -31 48 -31 8 0 20 6 26 14 9 11 8 15 -5 20 -24
9 -62 7 -69 -3z"/>
<path d="M1423 709 c7 -20 -10 -39 -34 -39 -27 0 -33 -18 -15 -45 16 -24 56
-35 56 -15 0 6 -6 10 -14 10 -7 0 -19 6 -25 14 -10 12 -6 15 19 21 38 8 49 31
25 53 -16 15 -17 15 -12 1z"/>
<path d="M924 685 c-17 -13 -17 -14 -2 -15 9 0 20 5 23 11 11 17 0 20 -21 4z"/>
<path d="M1169 644 c-17 -17 -58 -23 -177 -29 -73 -3 -84 -1 -95 16 -15 24
-27 24 -27 0 0 -27 22 -41 66 -40 21 0 58 0 82 -2 24 -1 48 3 55 10 6 6 20 11
31 11 16 0 17 -3 8 -12 -16 -16 -15 -50 1 -72 12 -17 14 -15 15 15 1 55 5 69
17 69 14 0 50 38 44 45 -3 2 -12 -2 -20 -11z"/>
<path d="M763 637 c6 -16 -2 -21 -30 -18 -7 1 -13 -2 -13 -8 0 -12 103 -12
122 0 9 6 6 9 -12 9 -14 0 -36 8 -50 17 -22 16 -23 16 -17 0z"/>
<path d="M1231 559 c-12 -19 -26 -49 -32 -68 -13 -39 -3 -51 48 -51 35 0 98
47 76 57 -7 2 -13 11 -13 19 0 17 -5 17 -48 5 -37 -11 -42 0 -16 37 9 13 14
26 11 29 -3 3 -15 -10 -26 -28z"/>
<path d="M655 558 c-9 -14 -11 -24 -5 -26 6 -2 4 -12 -5 -25 -26 -38 -14 -87
23 -87 10 0 9 7 -4 30 -18 29 -17 30 4 59 22 31 30 71 13 71 -6 0 -17 -10 -26
-22z"/>
<path d="M1404 517 c-7 -20 3 -37 22 -37 18 0 17 10 -1 34 -13 17 -15 17 -21
3z"/>
<path d="M792 489 c-29 -11 -28 -26 4 -55 30 -29 54 -30 85 -5 22 18 23 21 9
35 -22 22 -71 35 -98 25z"/>
<path d="M967 466 c-5 -15 -6 -31 -3 -34 8 -8 18 25 14 45 -3 13 -6 10 -11
-11z"/>
<path d="M1462 445 c-20 -11 -21 -14 -7 -25 21 -18 19 -39 -7 -49 -15 -5 -18
-10 -9 -15 17 -11 52 24 49 48 -1 12 1 26 5 33 11 17 -5 21 -31 8z"/>
<path d="M657 389 c18 -19 24 -20 37 -9 22 17 21 34 -1 21 -11 -6 -25 -6 -38
1 -19 10 -19 9 2 -13z"/>
<path d="M1150 404 c0 -13 54 -89 69 -99 6 -3 11 2 11 12 0 11 -18 37 -40 58
-22 21 -40 34 -40 29z"/>
<path d="M926 361 c-10 -11 -16 -28 -14 -38 3 -14 8 -11 22 15 20 40 17 50 -8
23z"/>
<path d="M707 344 c-3 -4 -2 -17 4 -31 23 -60 -4 -123 -43 -102 -26 14 -38 1
-15 -16 14 -10 23 -10 42 -1 14 6 25 15 25 20 0 5 9 1 20 -9 11 -10 20 -13 20
-7 0 6 -5 14 -11 18 -6 3 -9 20 -7 36 5 29 -24 103 -35 92z"/>
<path d="M1348 333 c-20 -23 -32 -63 -20 -63 13 0 36 29 29 37 -4 3 -2 14 4
24 12 24 7 24 -13 2z"/>
<path d="M1415 320 c3 -5 10 -10 16 -10 5 0 9 5 9 10 0 6 -7 10 -16 10 -8 0
-12 -4 -9 -10z"/>
<path d="M647 293 c-9 -2 -15 -9 -12 -14 9 -14 32 -11 39 6 6 15 4 16 -27 8z"/>
<path d="M1390 289 c0 -5 5 -7 10 -4 6 3 10 8 10 11 0 2 -4 4 -10 4 -5 0 -10
-5 -10 -11z"/>
<path d="M787 250 c-3 -10 1 -24 9 -31 11 -9 14 -7 14 14 0 32 -16 44 -23 17z"/>
<path d="M990 242 c-45 -22 -63 -68 -35 -88 25 -19 55 -18 55 2 0 22 24 12 28
-12 2 -10 10 -24 19 -31 33 -26 -20 -70 -92 -76 l-40 -4 46 -1 c26 -1 53 4 65
12 10 8 29 12 42 9 12 -3 28 0 36 6 10 8 21 8 40 1 15 -5 39 -10 54 -10 34 0
128 53 142 80 16 30 2 24 -46 -20 -48 -44 -79 -55 -127 -46 -48 10 -73 32 -58
50 7 8 11 25 9 37 -4 29 18 36 25 9 5 -18 9 -20 26 -10 34 18 28 66 -11 90
-42 26 -130 27 -178 2z"/>
<path d="M826 79 c15 -17 82 -45 88 -37 2 1 -21 15 -51 29 -42 20 -50 22 -37
8z"/>
</g>
</svg>
