<?xml version="1.0" encoding="UTF-8"?>
<svg xmlns="http://www.w3.org/2000/svg" xmlns:xlink="http://www.w3.org/1999/xlink" width="200px" height="46px" viewBox="0 0 200 46" version="1.1">
<g id="surface1">
<path style=" stroke:none;fill-rule:nonzero;fill:rgb(0%,0%,0%);fill-opacity:1;" d="M 50.136719 10.628906 C 49.65625 10.769531 54.269531 13.363281 55.027344 13.363281 C 55.304688 13.363281 56.265625 12.917969 57.164062 12.351562 C 58.058594 11.804688 59.296875 11.195312 59.984375 11.015625 C 61.089844 10.730469 61.226562 10.730469 61.984375 11.136719 C 62.742188 11.5625 62.601562 12.230469 61.570312 13.019531 C 61.15625 13.34375 61.5 13.382812 65.496094 13.320312 C 69.628906 13.261719 69.902344 13.222656 70.179688 12.753906 C 70.386719 12.269531 70.316406 12.269531 69.078125 12.613281 C 67.21875 13.097656 65.425781 13.058594 65.425781 12.53125 C 65.425781 12.207031 65.703125 12.148438 66.804688 12.25 C 67.90625 12.351562 68.183594 12.289062 68.183594 11.863281 C 68.183594 11.296875 67.5625 11.195312 66.253906 11.582031 C 65.632812 11.761719 65.425781 11.722656 65.425781 11.378906 C 65.425781 10.894531 67.355469 10.769531 68.664062 11.15625 C 69.214844 11.316406 69.558594 11.316406 69.835938 11.15625 C 70.867188 10.691406 69.214844 10.527344 63.292969 10.527344 C 57.230469 10.527344 57.164062 10.527344 57.164062 11.015625 C 57.164062 11.925781 54.957031 11.964844 54.753906 11.074219 C 54.683594 10.730469 54.132812 10.609375 52.617188 10.570312 C 51.515625 10.527344 50.414062 10.570312 50.136719 10.628906 Z M 50.136719 10.628906 "/>
<path style=" stroke:none;fill-rule:nonzero;fill:rgb(0%,0%,0%);fill-opacity:1;" d="M 71.28125 10.933594 C 70.660156 11.480469 71.28125 11.660156 72.660156 11.339844 C 74.105469 10.992188 74.65625 11.5 73.828125 12.410156 C 73.003906 13.261719 73.277344 13.363281 75.828125 13.363281 C 77.824219 13.363281 78.996094 13.078125 77.824219 12.855469 C 76.929688 12.695312 76.929688 11.136719 77.753906 11.136719 C 78.167969 11.136719 78.648438 11.214844 78.855469 11.339844 C 79.613281 11.703125 80.648438 11.539062 80.441406 11.074219 C 80.234375 10.667969 79.820312 10.628906 75.964844 10.570312 C 72.175781 10.507812 71.695312 10.546875 71.28125 10.933594 Z M 71.28125 10.933594 "/>
<path style=" stroke:none;fill-rule:nonzero;fill:rgb(0%,0%,0%);fill-opacity:1;" d="M 81.613281 11.945312 L 81.613281 13.382812 L 85.742188 13.320312 C 89.53125 13.261719 89.875 13.222656 90.152344 12.753906 C 90.359375 12.269531 90.289062 12.269531 89.050781 12.613281 C 87.398438 13.039062 85.675781 13.058594 85.191406 12.652344 C 84.710938 12.332031 85.742188 12.066406 86.707031 12.25 C 87.601562 12.410156 88.359375 11.984375 87.878906 11.601562 C 87.535156 11.359375 87.257812 11.339844 86.5 11.519531 C 85.8125 11.683594 85.398438 11.703125 85.054688 11.539062 C 83.953125 11.015625 87.050781 10.691406 88.707031 11.175781 C 89.324219 11.359375 89.53125 11.316406 89.53125 10.972656 C 89.53125 10.570312 89.1875 10.527344 85.605469 10.527344 L 81.613281 10.527344 Z M 81.613281 11.945312 "/>
<path style=" stroke:none;fill-rule:nonzero;fill:rgb(0%,0%,0%);fill-opacity:1;" d="M 91.390625 11.882812 L 91.460938 13.261719 L 93.59375 13.320312 C 95.59375 13.382812 95.660156 13.363281 95.316406 12.777344 C 94.765625 11.964844 95.867188 11.964844 96.902344 12.753906 C 97.519531 13.222656 98.070312 13.363281 99.519531 13.363281 C 101.101562 13.363281 101.238281 13.300781 100.894531 12.898438 C 100.621094 12.652344 100 12.332031 99.519531 12.167969 C 98.828125 11.964844 98.761719 11.804688 99.378906 11.519531 C 100.621094 10.914062 98.898438 10.527344 94.765625 10.527344 L 91.253906 10.527344 Z M 96.417969 11.339844 C 96.417969 11.5625 96.144531 11.742188 95.730469 11.742188 C 95.386719 11.742188 95.042969 11.5625 95.042969 11.339844 C 95.042969 11.117188 95.386719 10.933594 95.730469 10.933594 C 96.144531 10.933594 96.417969 11.117188 96.417969 11.339844 Z M 96.417969 11.339844 "/>
<path style=" stroke:none;fill-rule:nonzero;fill:rgb(0%,0%,0%);fill-opacity:1;" d="M 102.480469 10.648438 C 102.273438 10.710938 102.410156 11.015625 102.824219 11.359375 C 103.375 11.785156 103.375 12.105469 102.824219 12.53125 C 101.929688 13.242188 102.203125 13.363281 104.753906 13.363281 C 106.75 13.363281 107.921875 13.078125 106.75 12.855469 C 105.855469 12.695312 105.855469 11.195312 106.75 11.035156 C 107.921875 10.8125 106.75 10.527344 104.753906 10.527344 C 103.71875 10.527344 102.6875 10.589844 102.480469 10.648438 Z M 102.480469 10.648438 "/>
<path style=" stroke:none;fill-rule:nonzero;fill:rgb(0%,0%,0%);fill-opacity:1;" d="M 108.472656 11.945312 C 108.472656 13.300781 108.539062 13.363281 110.054688 13.363281 C 111.5 13.363281 111.640625 13.300781 111.226562 12.753906 C 110.605469 11.964844 111.570312 11.984375 114.667969 12.777344 C 116.046875 13.140625 117.21875 13.382812 117.355469 13.34375 C 117.492188 13.300781 117.769531 12.652344 117.976562 11.882812 C 118.320312 10.570312 118.25 10.527344 116.667969 10.527344 C 115.015625 10.527344 114.460938 10.8125 115.703125 11.035156 C 116.117188 11.09375 116.390625 11.238281 116.390625 11.359375 C 116.390625 11.703125 114.601562 11.539062 112.949219 11.035156 C 112.050781 10.75 110.675781 10.527344 109.917969 10.527344 C 108.609375 10.527344 108.472656 10.648438 108.472656 11.945312 Z M 108.472656 11.945312 "/>
<path style=" stroke:none;fill-rule:nonzero;fill:rgb(0%,0%,0%);fill-opacity:1;" d="M 122.863281 10.871094 C 122.660156 11.074219 121.832031 11.640625 121.003906 12.148438 C 120.179688 12.652344 119.421875 13.121094 119.285156 13.199219 C 119.144531 13.300781 119.835938 13.363281 120.867188 13.363281 C 122.175781 13.363281 122.660156 13.28125 122.382812 13.078125 C 121.96875 12.777344 123.691406 12.472656 124.722656 12.675781 C 125.070312 12.734375 125.34375 12.898438 125.34375 13.058594 C 125.34375 13.261719 126.585938 13.34375 130.507812 13.320312 L 135.605469 13.320312 L 135.191406 12.734375 C 134.710938 11.964844 135.8125 11.984375 136.847656 12.753906 C 137.464844 13.222656 138.015625 13.363281 139.460938 13.363281 C 141.046875 13.363281 141.183594 13.300781 140.839844 12.898438 C 140.566406 12.652344 139.945312 12.332031 139.460938 12.167969 C 138.773438 11.964844 138.707031 11.804688 139.324219 11.519531 C 140.632812 10.914062 138.84375 10.527344 134.710938 10.527344 L 131.128906 10.527344 L 131.40625 11.742188 C 131.816406 13.34375 130.507812 13.363281 127.753906 11.785156 C 125.621094 10.589844 123.554688 10.203125 122.863281 10.871094 Z M 136.363281 11.339844 C 136.363281 11.5625 136.089844 11.742188 135.675781 11.742188 C 135.332031 11.742188 134.984375 11.5625 134.984375 11.339844 C 134.984375 11.117188 135.332031 10.933594 135.675781 10.933594 C 136.089844 10.933594 136.363281 11.117188 136.363281 11.339844 Z M 124.65625 11.945312 C 124.65625 12.046875 124.378906 12.148438 123.96875 12.148438 C 123.621094 12.148438 123.277344 12.046875 123.277344 11.945312 C 123.277344 11.824219 123.621094 11.742188 123.96875 11.742188 C 124.378906 11.742188 124.65625 11.824219 124.65625 11.945312 Z M 124.65625 11.945312 "/>
<path style=" stroke:none;fill-rule:nonzero;fill:rgb(0%,0%,0%);fill-opacity:1;" d="M 142.355469 10.667969 C 142.078125 10.730469 142.21875 10.914062 142.628906 11.074219 C 143.113281 11.238281 143.25 11.722656 143.042969 12.351562 C 142.628906 13.363281 142.628906 13.363281 144.628906 13.363281 C 146.695312 13.363281 147.863281 13.078125 146.695312 12.855469 C 146.351562 12.796875 146.003906 12.371094 146.003906 11.945312 C 146.003906 11.519531 146.351562 11.09375 146.695312 11.035156 C 147.109375 10.953125 147.246094 10.8125 147.039062 10.710938 C 146.554688 10.507812 143.042969 10.46875 142.355469 10.667969 Z M 142.355469 10.667969 "/>
<path style=" stroke:none;fill-rule:nonzero;fill:rgb(0%,0%,0%);fill-opacity:1;" d="M 151.515625 10.792969 C 151.515625 11.035156 149.863281 12.25 148.210938 13.199219 C 148.070312 13.300781 148.761719 13.363281 149.792969 13.363281 C 151.171875 13.363281 151.585938 13.28125 151.308594 13.058594 C 151.03125 12.898438 151.171875 12.714844 151.515625 12.652344 C 152.410156 12.492188 154.476562 12.835938 154.132812 13.078125 C 154.0625 13.179688 155.097656 13.28125 156.542969 13.320312 C 157.921875 13.363281 159.089844 13.34375 159.089844 13.300781 C 159.089844 13.261719 158.058594 12.632812 156.816406 11.925781 C 155.234375 11.015625 154.0625 10.609375 153.03125 10.570312 C 152.066406 10.527344 151.515625 10.609375 151.515625 10.792969 Z M 153.582031 11.945312 C 153.582031 12.046875 153.097656 12.148438 152.480469 12.148438 C 151.929688 12.148438 151.652344 12.046875 151.859375 11.945312 C 152.066406 11.824219 152.546875 11.742188 152.960938 11.742188 C 153.304688 11.742188 153.582031 11.824219 153.582031 11.945312 Z M 153.582031 11.945312 "/>
<path style=" stroke:none;fill-rule:nonzero;fill:rgb(0%,0%,0%);fill-opacity:1;" d="M 32.921875 14.980469 C 31.816406 15.183594 31.679688 15.570312 31.679688 18.324219 C 31.679688 20.347656 31.957031 21.480469 32.4375 21.582031 C 33.675781 21.804688 43.527344 21.847656 46.28125 21.644531 C 47.660156 21.542969 49.792969 21.21875 50.964844 20.933594 C 52.960938 20.429688 53.03125 20.429688 53.03125 20.832031 C 53.03125 21.054688 53.582031 21.320312 54.269531 21.421875 C 55.992188 21.703125 97.863281 21.703125 98.96875 21.421875 C 99.449219 21.300781 99.863281 20.894531 99.863281 20.53125 C 99.863281 19.863281 99.929688 19.839844 102.6875 19.839844 C 105.164062 19.839844 105.441406 19.882812 105.027344 20.246094 C 104.753906 20.507812 105.027344 20.875 105.648438 21.15625 C 106.613281 21.601562 107.300781 21.664062 110.882812 21.664062 C 115.015625 21.664062 117.078125 21.359375 117.078125 20.730469 C 117.078125 20.550781 118.042969 20.671875 120.109375 21.097656 C 122.660156 21.601562 123.828125 21.722656 126.859375 21.722656 C 128.925781 21.722656 131.265625 21.601562 132.164062 21.480469 C 133.332031 21.300781 133.953125 21.277344 134.503906 21.441406 C 134.917969 21.5625 137.121094 21.664062 139.460938 21.664062 C 141.804688 21.664062 144.007812 21.5625 144.421875 21.441406 C 144.972656 21.277344 145.59375 21.277344 146.488281 21.441406 C 147.3125 21.5625 153.445312 21.644531 161.707031 21.664062 C 173.347656 21.664062 175.6875 21.625 176.585938 21.339844 C 177.960938 20.933594 177.960938 20.792969 176.378906 19.882812 C 175.207031 19.214844 175.207031 19.050781 176.03125 18.625 C 177.617188 17.777344 177.273438 16.519531 175.207031 15.8125 C 173.070312 15.0625 169.902344 14.78125 163.359375 14.78125 C 156.128906 14.78125 155.648438 14.882812 155.578125 16.664062 L 155.578125 18.121094 L 153.511719 16.804688 C 150.550781 14.921875 149.929688 14.78125 145.246094 14.78125 C 140.496094 14.78125 140.21875 14.859375 137.398438 17.25 C 136.363281 18.121094 135.191406 18.828125 134.847656 18.828125 C 133.539062 18.828125 133.539062 18.203125 134.917969 17.554688 C 136.984375 16.5625 136.777344 15.914062 134.230469 15.367188 C 131.957031 14.902344 126.652344 14.636719 123.691406 14.859375 C 122.726562 14.921875 120.867188 15.265625 119.492188 15.609375 C 117.285156 16.195312 117.078125 16.195312 117.078125 15.8125 C 117.078125 14.980469 114.875 14.839844 101.378906 14.859375 C 90.976562 14.882812 88.707031 14.941406 88.152344 15.183594 C 87.808594 15.347656 87.464844 16.097656 87.464844 16.824219 C 87.464844 18.242188 87.050781 18.425781 83.953125 18.425781 C 82.644531 18.425781 82.574219 18.324219 83.058594 17.007812 C 83.402344 16.015625 83.265625 15.507812 82.644531 15.285156 C 81.957031 15.042969 79.269531 15.003906 67.769531 14.980469 L 53.648438 14.980469 L 53.238281 15.609375 C 52.824219 16.21875 52.824219 16.21875 51.378906 15.832031 C 50.621094 15.609375 49.242188 15.328125 48.414062 15.207031 C 46.210938 14.882812 34.367188 14.699219 32.921875 14.980469 Z M 131.542969 15.507812 C 134.574219 15.875 134.847656 16.117188 133.265625 17.007812 C 132.230469 17.613281 130.648438 17.796875 129.820312 17.410156 C 129.132812 17.066406 126.308594 17.1875 125.070312 17.59375 C 122.660156 18.382812 125.621094 19.417969 129.132812 19.03125 C 130.097656 18.929688 131.199219 18.828125 131.40625 18.828125 C 132.023438 18.828125 134.296875 19.921875 134.296875 20.226562 C 134.296875 20.609375 130.304688 21.054688 126.929688 21.054688 C 113.429688 21.054688 113.707031 15.40625 127.203125 15.207031 C 128.097656 15.207031 130.027344 15.328125 131.542969 15.507812 Z M 47.933594 15.773438 C 52.824219 16.417969 54.546875 18.304688 51.445312 19.660156 C 49.105469 20.710938 46.074219 21.054688 39.460938 21.054688 L 33.746094 21.054688 L 33.746094 15.386719 L 39.460938 15.386719 C 43.457031 15.386719 45.9375 15.507812 47.933594 15.773438 Z M 70.109375 16.238281 L 70.316406 17.007812 L 66.875 17.007812 C 64.945312 17.007812 63.359375 17.089844 63.359375 17.210938 C 63.359375 17.3125 64.808594 17.410156 66.667969 17.410156 L 69.972656 17.410156 L 69.695312 18.222656 L 69.421875 19.050781 L 66.460938 18.910156 C 64.738281 18.847656 63.359375 18.871094 63.085938 18.992188 C 62.464844 19.273438 64.945312 19.476562 68.042969 19.394531 C 69.765625 19.355469 70.59375 19.417969 70.523438 19.597656 C 70.453125 19.71875 70.386719 20.125 70.386719 20.449219 L 70.246094 21.078125 L 62.878906 21.015625 L 55.441406 20.957031 L 55.371094 18.160156 L 55.234375 15.367188 L 62.601562 15.429688 L 69.902344 15.488281 Z M 80.027344 17.3125 L 79.753906 19.234375 L 87.535156 19.234375 L 87.328125 20.085938 L 87.121094 20.957031 L 80.097656 21.015625 L 73.003906 21.078125 L 73.003906 19.597656 C 73.003906 18.789062 72.796875 17.511719 72.519531 16.742188 L 72.109375 15.386719 L 80.304688 15.386719 Z M 104.683594 16.257812 L 104.683594 17.148438 L 100.828125 17.046875 C 98.003906 16.988281 97.039062 17.007812 97.382812 17.1875 C 97.660156 17.3125 99.3125 17.410156 101.03125 17.410156 C 103.582031 17.410156 104.0625 17.472656 103.71875 17.734375 C 103.511719 17.917969 103.304688 18.28125 103.304688 18.546875 C 103.304688 18.992188 103.03125 19.03125 100.207031 19.03125 L 97.109375 19.03125 L 97.109375 21.054688 L 89.53125 21.054688 L 89.53125 15.386719 L 104.683594 15.386719 Z M 114.324219 18.019531 C 114.324219 19.457031 114.324219 20.710938 114.324219 20.792969 C 114.324219 20.894531 112.601562 20.976562 110.539062 21.015625 L 106.75 21.078125 L 106.75 15.386719 L 114.324219 15.386719 Z M 150.277344 16.195312 C 151.378906 16.867188 154.890625 19.578125 155.921875 20.589844 C 156.40625 21.035156 156.265625 21.054688 152.339844 21.054688 C 149.3125 21.054688 148.140625 20.976562 147.796875 20.753906 C 147.589844 20.589844 146.695312 20.449219 145.800781 20.449219 C 144.835938 20.449219 143.734375 20.589844 143.25 20.753906 C 142.699219 20.957031 141.117188 21.054688 138.707031 21.054688 C 136.640625 21.054688 134.984375 21.015625 134.984375 20.957031 C 134.984375 20.914062 136.363281 19.761719 138.085938 18.382812 C 139.808594 17.007812 141.390625 15.773438 141.527344 15.628906 C 141.734375 15.449219 142.976562 15.386719 145.453125 15.429688 C 148.828125 15.488281 149.171875 15.527344 150.277344 16.195312 Z M 173.484375 15.914062 C 176.101562 16.5625 176.378906 17.492188 174.105469 18.324219 L 172.660156 18.871094 L 174.105469 19.761719 C 174.929688 20.265625 175.621094 20.753906 175.621094 20.855469 C 175.621094 20.976562 173.898438 21.054688 171.832031 21.054688 C 168.113281 21.054688 168.113281 21.054688 166.734375 20.1875 L 165.425781 19.335938 L 165.359375 20.1875 L 165.289062 21.054688 L 157.714844 21.054688 L 157.714844 15.386719 L 164.53125 15.386719 C 170.867188 15.386719 171.554688 15.429688 173.484375 15.914062 Z M 173.484375 15.914062 "/>
<path style=" stroke:none;fill-rule:nonzero;fill:rgb(0%,0%,0%);fill-opacity:1;" d="M 41.324219 18.222656 C 41.324219 19.578125 41.875 19.699219 44.492188 18.929688 C 46.351562 18.382812 46.28125 17.734375 44.214844 17.25 C 41.941406 16.742188 41.324219 16.945312 41.324219 18.222656 Z M 41.324219 18.222656 "/>
<path style=" stroke:none;fill-rule:nonzero;fill:rgb(0%,0%,0%);fill-opacity:1;" d="M 145.042969 17.957031 C 144.214844 18.203125 144.628906 18.625 145.660156 18.625 C 146.210938 18.625 146.695312 18.503906 146.695312 18.34375 C 146.695312 18 145.730469 17.777344 145.042969 17.957031 Z M 145.042969 17.957031 "/>
<path style=" stroke:none;fill-rule:nonzero;fill:rgb(0%,0%,0%);fill-opacity:1;" d="M 165.289062 17.410156 C 165.289062 17.714844 165.632812 17.816406 166.527344 17.777344 C 167.148438 17.734375 167.699219 17.574219 167.699219 17.410156 C 167.699219 17.25 167.148438 17.089844 166.527344 17.046875 C 165.632812 17.007812 165.289062 17.109375 165.289062 17.410156 Z M 165.289062 17.410156 "/>
<path style=" stroke:none;fill-rule:nonzero;fill:rgb(0%,0%,0%);fill-opacity:1;" d="M 103.996094 23.75 C 107.921875 24.375 110.539062 24.621094 109.917969 24.316406 C 109.367188 24.054688 105.304688 23.527344 102.6875 23.363281 C 101.445312 23.304688 101.929688 23.425781 103.996094 23.75 Z M 103.996094 23.75 "/>
<path style=" stroke:none;fill-rule:nonzero;fill:rgb(0%,0%,0%);fill-opacity:1;" d="M 101.445312 25.105469 C 101.171875 25.390625 100.480469 25.511719 99.105469 25.511719 C 97.796875 25.511719 97.109375 25.613281 97.109375 25.8125 C 97.109375 26.015625 97.796875 26.117188 99.105469 26.117188 C 100.894531 26.117188 101.171875 26.199219 101.378906 26.765625 C 101.515625 27.191406 101.929688 27.433594 102.617188 27.433594 C 103.304688 27.433594 103.71875 27.191406 103.855469 26.765625 C 104.0625 26.199219 104.339844 26.117188 106.128906 26.117188 C 107.4375 26.117188 108.125 26.015625 108.125 25.8125 C 108.125 25.613281 107.4375 25.511719 106.128906 25.511719 C 104.753906 25.511719 104.0625 25.390625 103.789062 25.105469 C 103.582031 24.882812 103.097656 24.699219 102.617188 24.699219 C 102.136719 24.699219 101.652344 24.882812 101.445312 25.105469 Z M 101.445312 25.105469 "/>
<path style=" stroke:none;fill-rule:nonzero;fill:rgb(0%,0%,0%);fill-opacity:1;" d="M 79.546875 25.105469 C 78.375 25.167969 77.824219 25.269531 78.238281 25.347656 C 78.648438 25.429688 80.371094 25.367188 82.023438 25.226562 C 85.054688 24.945312 83.746094 24.882812 79.546875 25.105469 Z M 79.546875 25.105469 "/>
<path style=" stroke:none;fill-rule:nonzero;fill:rgb(0%,0%,0%);fill-opacity:1;" d="M 92.5625 25.347656 L 91.253906 25.8125 L 92.835938 25.429688 C 93.664062 25.207031 94.351562 25.003906 94.351562 24.964844 C 94.351562 24.800781 93.800781 24.921875 92.5625 25.347656 Z M 92.5625 25.347656 "/>
<path style=" stroke:none;fill-rule:nonzero;fill:rgb(0%,0%,0%);fill-opacity:1;" d="M 125.414062 25.492188 C 124.863281 25.613281 124.792969 25.714844 125.207031 25.792969 C 125.621094 25.855469 126.171875 25.8125 126.378906 25.691406 C 126.996094 25.410156 126.515625 25.289062 125.414062 25.492188 Z M 125.414062 25.492188 "/>
<path style=" stroke:none;fill-rule:nonzero;fill:rgb(0%,0%,0%);fill-opacity:1;" d="M 123.828125 27.070312 C 124.242188 27.109375 125.070312 27.109375 125.550781 27.070312 C 125.964844 27.007812 125.621094 26.96875 124.65625 26.96875 C 123.691406 26.96875 123.347656 27.007812 123.828125 27.070312 Z M 123.828125 27.070312 "/>
<path style=" stroke:none;fill-rule:nonzero;fill:rgb(0%,0%,0%);fill-opacity:1;" d="M 77.480469 27.332031 C 76.789062 27.636719 78.582031 27.777344 81.472656 27.65625 C 86.226562 27.433594 86.5 27.191406 81.957031 27.191406 C 79.683594 27.171875 77.6875 27.25 77.480469 27.332031 Z M 77.480469 27.332031 "/>
<path style=" stroke:none;fill-rule:nonzero;fill:rgb(0%,0%,0%);fill-opacity:1;" d="M 116.804688 27.675781 C 116.527344 27.757812 113.429688 27.898438 109.984375 27.980469 C 89.257812 28.445312 78.511719 28.910156 78.511719 29.378906 C 78.511719 29.5 78.925781 29.5 79.820312 29.355469 C 80.578125 29.257812 82.230469 29.15625 83.539062 29.15625 C 84.847656 29.15625 87.257812 29.011719 88.84375 28.851562 C 92.148438 28.507812 97.453125 28.445312 96.761719 28.75 C 96.554688 28.851562 95.730469 28.953125 94.972656 28.953125 C 94.285156 28.953125 93.664062 29.054688 93.664062 29.175781 C 93.664062 29.316406 94.285156 29.355469 95.246094 29.257812 C 96.074219 29.195312 97.726562 29.054688 98.828125 28.972656 C 100 28.871094 101.859375 28.648438 102.960938 28.464844 C 105.234375 28.101562 109.847656 28.019531 110.539062 28.34375 C 111.292969 28.6875 114.945312 28.566406 116.390625 28.144531 C 117.355469 27.859375 118.320312 27.777344 119.835938 27.839844 C 125.6875 28.121094 126.378906 28.121094 125.34375 27.960938 C 123.828125 27.695312 117.492188 27.496094 116.804688 27.675781 Z M 116.804688 27.675781 "/>
<path style=" stroke:none;fill-rule:nonzero;fill:rgb(0%,0%,0%);fill-opacity:1;" d="M 121.902344 28.488281 C 122.453125 28.566406 123.347656 28.769531 123.828125 28.992188 C 124.929688 29.4375 126.308594 29.480469 125.757812 29.054688 C 125.480469 28.789062 125.621094 28.769531 126.722656 28.953125 C 127.480469 29.074219 128.097656 29.09375 128.097656 28.992188 C 128.097656 28.609375 126.238281 28.34375 123.691406 28.367188 C 122.109375 28.367188 121.351562 28.425781 121.902344 28.488281 Z M 121.902344 28.488281 "/>
<path style=" stroke:none;fill-rule:nonzero;fill:rgb(0%,0%,0%);fill-opacity:1;" d="M 105.714844 28.75 C 107.574219 28.992188 108.125 28.992188 108.125 28.75 C 108.125 28.628906 107.300781 28.546875 106.265625 28.566406 C 104.546875 28.566406 104.476562 28.589844 105.714844 28.75 Z M 105.714844 28.75 "/>
<path style=" stroke:none;fill-rule:nonzero;fill:rgb(0%,0%,0%);fill-opacity:1;" d="M 89.324219 29.5 C 88.636719 29.679688 88.707031 30.328125 89.394531 30.449219 C 89.738281 30.511719 90.015625 30.289062 90.082031 29.964844 C 90.152344 29.316406 90.015625 29.277344 89.324219 29.5 Z M 89.324219 29.5 "/>
<path style=" stroke:none;fill-rule:nonzero;fill:rgb(0%,0%,0%);fill-opacity:1;" d="M 105.714844 29.761719 C 105.992188 30.027344 105.648438 30.25 104.339844 30.492188 C 101.929688 30.957031 102.617188 31.078125 105.304688 30.671875 C 107.574219 30.328125 108.195312 29.679688 106.335938 29.480469 C 105.507812 29.398438 105.371094 29.457031 105.714844 29.761719 Z M 105.714844 29.761719 "/>
<path style=" stroke:none;fill-rule:nonzero;fill:rgb(0%,0%,0%);fill-opacity:1;" d="M 80.855469 29.78125 C 78.511719 29.984375 76.652344 30.492188 77.410156 30.714844 C 77.6875 30.792969 78.097656 30.773438 78.375 30.652344 C 78.648438 30.53125 79.890625 30.269531 81.128906 30.085938 C 82.300781 29.902344 83.332031 29.703125 83.332031 29.660156 C 83.332031 29.601562 83.265625 29.558594 83.195312 29.582031 C 83.058594 29.582031 82.023438 29.679688 80.855469 29.78125 Z M 80.855469 29.78125 "/>
<path style=" stroke:none;fill-rule:nonzero;fill:rgb(0%,0%,0%);fill-opacity:1;" d="M 115.703125 29.742188 C 115.152344 29.863281 114.460938 29.882812 114.1875 29.84375 C 113.910156 29.78125 113.636719 29.824219 113.636719 29.945312 C 113.636719 30.046875 113.980469 30.207031 114.394531 30.269531 C 114.738281 30.347656 115.425781 30.632812 115.769531 30.917969 C 116.324219 31.363281 116.597656 31.382812 117.492188 31.160156 C 118.527344 30.917969 118.457031 30.855469 117.148438 30.613281 C 116.046875 30.390625 115.910156 30.25 116.460938 29.945312 C 117.21875 29.519531 117.148438 29.5 115.703125 29.742188 Z M 115.703125 29.742188 "/>
<path style=" stroke:none;fill-rule:nonzero;fill:rgb(0%,0%,0%);fill-opacity:1;" d="M 119.492188 29.742188 C 119.078125 29.964844 121.210938 30.371094 122.796875 30.371094 C 123.347656 30.371094 124.171875 30.25 124.585938 30.085938 C 125.207031 29.863281 125.136719 29.78125 124.242188 29.679688 C 122.589844 29.5 119.972656 29.539062 119.492188 29.742188 Z M 119.492188 29.742188 "/>
<path style=" stroke:none;fill-rule:nonzero;fill:rgb(0%,0%,0%);fill-opacity:1;" d="M 128.996094 29.78125 C 129.476562 30.1875 128.304688 30.570312 126.652344 30.570312 C 124.792969 30.570312 124.378906 30.9375 125.621094 31.484375 C 126.722656 31.96875 129.476562 32.191406 129.476562 31.785156 C 129.476562 31.664062 129.0625 31.585938 128.511719 31.585938 C 128.03125 31.585938 127.203125 31.464844 126.789062 31.300781 C 126.101562 31.058594 126.378906 30.996094 128.097656 30.875 C 130.714844 30.714844 131.472656 30.25 129.820312 29.804688 C 128.71875 29.5 128.648438 29.5 128.996094 29.78125 Z M 128.996094 29.78125 "/>
<path style=" stroke:none;fill-rule:nonzero;fill:rgb(0%,0%,0%);fill-opacity:1;" d="M 94.628906 30.269531 C 93.457031 30.53125 93.457031 30.550781 94.492188 30.570312 C 95.109375 30.570312 95.867188 30.472656 96.074219 30.347656 C 96.832031 30.003906 96.074219 29.945312 94.628906 30.269531 Z M 94.628906 30.269531 "/>
<path style=" stroke:none;fill-rule:nonzero;fill:rgb(0%,0%,0%);fill-opacity:1;" d="M 111.5 31.097656 C 110.332031 31.441406 107.507812 31.5625 99.3125 31.6875 C 94.285156 31.746094 93.527344 31.707031 92.769531 31.363281 C 91.734375 30.875 90.910156 30.875 90.910156 31.363281 C 90.910156 31.910156 92.425781 32.191406 95.453125 32.171875 C 96.902344 32.171875 99.449219 32.171875 101.101562 32.210938 C 102.753906 32.230469 104.40625 32.152344 104.890625 32.007812 C 105.304688 31.886719 106.265625 31.785156 107.023438 31.785156 C 108.125 31.785156 108.195312 31.847656 107.574219 32.03125 C 106.472656 32.355469 106.542969 33.042969 107.644531 33.488281 C 108.472656 33.832031 108.609375 33.792969 108.675781 33.183594 C 108.746094 32.070312 109.023438 31.785156 109.847656 31.785156 C 110.8125 31.785156 113.292969 31.019531 112.878906 30.875 C 112.671875 30.835938 112.050781 30.917969 111.5 31.097656 Z M 111.5 31.097656 "/>
<path style=" stroke:none;fill-rule:nonzero;fill:rgb(0%,0%,0%);fill-opacity:1;" d="M 83.539062 31.242188 C 83.953125 31.5625 83.402344 31.664062 81.472656 31.605469 C 80.992188 31.585938 80.578125 31.644531 80.578125 31.765625 C 80.578125 32.007812 87.671875 32.007812 88.980469 31.765625 C 89.601562 31.644531 89.394531 31.585938 88.152344 31.585938 C 87.191406 31.585938 85.675781 31.421875 84.710938 31.242188 C 83.195312 30.917969 83.125 30.917969 83.539062 31.242188 Z M 83.539062 31.242188 "/>
<path style=" stroke:none;fill-rule:nonzero;fill:rgb(0%,0%,0%);fill-opacity:1;" d="M 115.769531 32.820312 C 114.945312 33.203125 113.980469 33.8125 113.566406 34.195312 C 112.671875 34.984375 113.359375 35.230469 116.875 35.230469 C 119.285156 35.230469 123.621094 34.277344 122.109375 34.074219 C 121.625 34.035156 121.210938 33.851562 121.210938 33.691406 C 121.210938 33.347656 120.867188 33.347656 117.90625 33.589844 C 115.359375 33.8125 115.015625 33.589844 116.804688 32.839844 C 117.425781 32.578125 117.769531 32.3125 117.5625 32.253906 C 117.355469 32.191406 116.527344 32.457031 115.769531 32.820312 Z M 115.769531 32.820312 "/>
<path style=" stroke:none;fill-rule:nonzero;fill:rgb(0%,0%,0%);fill-opacity:1;" d="M 76.101562 32.839844 C 75.480469 33.125 75.34375 33.324219 75.757812 33.367188 C 76.171875 33.40625 76.03125 33.609375 75.414062 33.871094 C 73.621094 34.640625 74.449219 35.632812 76.996094 35.632812 C 77.6875 35.632812 77.617188 35.492188 76.722656 35.027344 C 75.480469 34.4375 75.550781 34.417969 76.996094 33.832031 C 78.511719 33.203125 79.0625 32.394531 77.890625 32.394531 C 77.480469 32.394531 76.722656 32.597656 76.101562 32.839844 Z M 76.101562 32.839844 "/>
<path style=" stroke:none;fill-rule:nonzero;fill:rgb(0%,0%,0%);fill-opacity:1;" d="M 127.6875 33.667969 C 127.203125 34.074219 127.890625 34.417969 129.199219 34.417969 C 130.441406 34.417969 130.371094 34.214844 129.132812 33.730469 C 128.238281 33.386719 128.097656 33.386719 127.6875 33.667969 Z M 127.6875 33.667969 "/>
<path style=" stroke:none;fill-rule:nonzero;fill:rgb(0%,0%,0%);fill-opacity:1;" d="M 85.539062 34.238281 C 83.539062 34.460938 83.609375 34.761719 85.8125 35.351562 C 87.878906 35.9375 89.53125 35.957031 91.667969 35.453125 C 93.183594 35.085938 93.25 35.027344 92.285156 34.742188 C 90.769531 34.296875 87.398438 34.035156 85.539062 34.238281 Z M 85.539062 34.238281 "/>
<path style=" stroke:none;fill-rule:nonzero;fill:rgb(0%,0%,0%);fill-opacity:1;" d="M 97.589844 34.703125 C 97.246094 35.007812 97.175781 35.332031 97.382812 35.390625 C 97.933594 35.554688 98.621094 34.882812 98.347656 34.480469 C 98.140625 34.214844 97.933594 34.277344 97.589844 34.703125 Z M 97.589844 34.703125 "/>
<path style=" stroke:none;fill-rule:nonzero;fill:rgb(0%,0%,0%);fill-opacity:1;" d="M 131.679688 35.128906 C 130.304688 35.351562 130.234375 35.410156 131.199219 35.632812 C 132.644531 36 132.507812 36.421875 130.714844 36.625 C 129.683594 36.726562 129.476562 36.828125 130.097656 36.929688 C 131.265625 37.152344 133.675781 36.445312 133.472656 35.957031 C 133.402344 35.714844 133.539062 35.429688 133.816406 35.289062 C 134.574219 34.945312 133.472656 34.863281 131.679688 35.128906 Z M 131.679688 35.128906 "/>
<path style=" stroke:none;fill-rule:nonzero;fill:rgb(0%,0%,0%);fill-opacity:1;" d="M 76.238281 36.261719 C 77.480469 36.644531 77.890625 36.667969 78.789062 36.445312 C 80.304688 36.097656 80.234375 35.753906 78.71875 36.019531 C 77.960938 36.140625 76.996094 36.140625 76.101562 36 C 74.792969 35.796875 74.792969 35.816406 76.238281 36.261719 Z M 76.238281 36.261719 "/>
<path style=" stroke:none;fill-rule:nonzero;fill:rgb(0%,0%,0%);fill-opacity:1;" d="M 110.191406 35.957031 C 110.191406 36.222656 113.910156 37.757812 114.945312 37.960938 C 115.359375 38.023438 115.703125 37.921875 115.703125 37.71875 C 115.703125 37.496094 114.460938 36.96875 112.949219 36.542969 C 111.433594 36.121094 110.191406 35.855469 110.191406 35.957031 Z M 110.191406 35.957031 "/>
<path style=" stroke:none;fill-rule:nonzero;fill:rgb(0%,0%,0%);fill-opacity:1;" d="M 94.765625 36.828125 C 94.078125 37.050781 93.664062 37.394531 93.800781 37.597656 C 94.007812 37.882812 94.351562 37.820312 95.316406 37.292969 C 96.695312 36.484375 96.488281 36.28125 94.765625 36.828125 Z M 94.765625 36.828125 "/>
<path style=" stroke:none;fill-rule:nonzero;fill:rgb(0%,0%,0%);fill-opacity:1;" d="M 79.683594 37.171875 C 79.476562 37.253906 79.546875 37.515625 79.957031 37.800781 C 81.542969 39.015625 79.683594 40.289062 76.996094 39.867188 C 75.207031 39.582031 74.378906 39.84375 75.964844 40.1875 C 76.929688 40.390625 77.546875 40.390625 78.855469 40.210938 C 79.820312 40.089844 80.578125 39.90625 80.578125 39.804688 C 80.578125 39.703125 81.199219 39.785156 81.957031 39.988281 C 82.714844 40.1875 83.332031 40.25 83.332031 40.128906 C 83.332031 40.007812 82.988281 39.84375 82.574219 39.765625 C 82.164062 39.703125 81.957031 39.359375 82.09375 39.035156 C 82.4375 38.449219 80.441406 36.949219 79.683594 37.171875 Z M 79.683594 37.171875 "/>
<path style=" stroke:none;fill-rule:nonzero;fill:rgb(0%,0%,0%);fill-opacity:1;" d="M 123.828125 37.394531 C 122.453125 37.859375 121.625 38.671875 122.453125 38.671875 C 123.347656 38.671875 124.929688 38.082031 124.449219 37.921875 C 124.171875 37.859375 124.3125 37.636719 124.722656 37.4375 C 125.550781 36.949219 125.207031 36.949219 123.828125 37.394531 Z M 123.828125 37.394531 "/>
<path style=" stroke:none;fill-rule:nonzero;fill:rgb(0%,0%,0%);fill-opacity:1;" d="M 128.445312 37.660156 C 128.648438 37.757812 129.132812 37.859375 129.546875 37.859375 C 129.890625 37.859375 130.164062 37.757812 130.164062 37.660156 C 130.164062 37.535156 129.683594 37.457031 129.0625 37.457031 C 128.511719 37.457031 128.238281 37.535156 128.445312 37.660156 Z M 128.445312 37.660156 "/>
<path style=" stroke:none;fill-rule:nonzero;fill:rgb(0%,0%,0%);fill-opacity:1;" d="M 75.550781 38.207031 C 74.929688 38.246094 74.519531 38.386719 74.722656 38.488281 C 75.34375 38.773438 76.929688 38.710938 77.410156 38.367188 C 77.824219 38.0625 77.6875 38.042969 75.550781 38.207031 Z M 75.550781 38.207031 "/>
<path style=" stroke:none;fill-rule:nonzero;fill:rgb(0%,0%,0%);fill-opacity:1;" d="M 126.722656 38.285156 C 126.722656 38.386719 127.066406 38.429688 127.410156 38.367188 C 127.824219 38.304688 128.097656 38.207031 128.097656 38.144531 C 128.097656 38.105469 127.824219 38.0625 127.410156 38.0625 C 127.066406 38.0625 126.722656 38.164062 126.722656 38.285156 Z M 126.722656 38.285156 "/>
<path style=" stroke:none;fill-rule:nonzero;fill:rgb(0%,0%,0%);fill-opacity:1;" d="M 85.191406 39.074219 C 84.984375 39.277344 85.261719 39.5625 85.8125 39.703125 C 86.570312 39.886719 86.777344 39.84375 86.777344 39.417969 C 86.777344 38.773438 85.675781 38.527344 85.191406 39.074219 Z M 85.191406 39.074219 "/>
<path style=" stroke:none;fill-rule:nonzero;fill:rgb(0%,0%,0%);fill-opacity:1;" d="M 99.171875 39.238281 C 96.074219 39.683594 94.835938 40.613281 96.761719 41.019531 C 98.484375 41.402344 100.550781 41.382812 100.550781 40.980469 C 100.550781 40.535156 102.203125 40.734375 102.480469 41.222656 C 102.617188 41.425781 103.167969 41.707031 103.789062 41.847656 C 106.0625 42.375 102.410156 43.265625 97.453125 43.386719 L 94.695312 43.46875 L 97.863281 43.488281 C 99.65625 43.507812 101.515625 43.410156 102.339844 43.246094 C 103.03125 43.085938 104.339844 43.003906 105.234375 43.0625 C 106.0625 43.125 107.164062 43.0625 107.714844 42.941406 C 108.402344 42.78125 109.160156 42.78125 110.46875 42.921875 C 111.5 43.023438 113.152344 43.125 114.1875 43.125 C 116.527344 43.125 123.003906 42.050781 123.96875 41.503906 C 125.070312 40.898438 124.105469 41.019531 120.800781 41.910156 C 117.492188 42.800781 115.359375 43.023438 112.050781 42.839844 C 108.746094 42.640625 107.023438 42.195312 108.058594 41.828125 C 108.539062 41.667969 108.816406 41.324219 108.675781 41.082031 C 108.402344 40.492188 109.917969 40.351562 110.398438 40.898438 C 110.742188 41.261719 111.019531 41.304688 112.191406 41.101562 C 114.53125 40.734375 114.117188 39.765625 111.433594 39.277344 C 108.539062 38.75 102.480469 38.730469 99.171875 39.238281 Z M 99.171875 39.238281 "/>
<path style=" stroke:none;fill-rule:nonzero;fill:rgb(0%,0%,0%);fill-opacity:1;" d="M 87.878906 42.539062 C 88.910156 42.882812 93.527344 43.449219 93.9375 43.285156 C 94.078125 43.265625 92.492188 42.984375 90.425781 42.699219 C 87.535156 42.292969 86.984375 42.253906 87.878906 42.539062 Z M 87.878906 42.539062 "/>
</g>
</svg>
