<?xml version="1.0" standalone="no"?>
<!DOCTYPE svg PUBLIC "-//W3C//DTD SVG 20010904//EN"
 "http://www.w3.org/TR/2001/REC-SVG-20010904/DTD/svg10.dtd">
<svg version="1.0" xmlns="http://www.w3.org/2000/svg"
 width="104.000000pt" height="117.000000pt" viewBox="0 0 104.000000 117.000000"
 preserveAspectRatio="xMidYMid meet">

<g transform="translate(0.000000,117.000000) scale(0.100000,-0.100000)"
fill="#000000" stroke="none">
<path d="M520 1097 c57 -31 95 -43 86 -28 -8 13 -67 39 -105 47 -18 3 -11 -3
19 -19z"/>
<path d="M483 1030 c-4 -14 -14 -20 -34 -20 -19 0 -29 -5 -29 -15 0 -10 10
-15 29 -15 26 0 30 -4 33 -32 2 -21 8 -33 18 -33 10 0 16 12 18 33 3 28 7 32
33 32 19 0 29 5 29 15 0 10 -10 15 -29 15 -20 0 -30 6 -34 20 -3 11 -10 20
-17 20 -7 0 -14 -9 -17 -20z"/>
<path d="M165 1030 c-17 -3 -25 -8 -19 -12 6 -4 31 -1 55 6 44 14 25 17 -36 6z"/>
<path d="M354 1018 l-19 -23 23 19 c21 18 27 26 19 26 -2 0 -12 -10 -23 -22z"/>
<path d="M831 1011 c-8 -6 -9 -11 -3 -15 6 -3 14 -1 17 5 9 14 2 20 -14 10z"/>
<path d="M808 933 c6 -2 18 -2 25 0 6 3 1 5 -13 5 -14 0 -19 -2 -12 -5z"/>
<path d="M135 920 c-10 -15 16 -22 58 -16 69 11 73 23 7 23 -33 1 -62 -3 -65
-7z"/>
<path d="M706 903 c-4 -4 -49 -11 -99 -15 -301 -23 -457 -46 -457 -69 0 -6 6
-6 19 1 11 5 35 10 54 10 19 0 54 7 77 15 48 17 125 20 115 5 -3 -5 -15 -10
-26 -10 -10 0 -19 -5 -19 -11 0 -7 9 -9 23 -4 12 3 36 10 52 14 17 5 44 16 60
25 33 18 100 22 110 6 11 -17 64 -11 85 10 14 14 28 18 50 15 85 -14 95 -14
80 -6 -22 13 -114 23 -124 14z"/>
<path d="M780 863 c8 -4 21 -14 28 -25 16 -22 36 -24 28 -3 -4 13 -2 14 14 5
11 -6 20 -7 20 -2 0 19 -27 32 -64 31 -23 0 -34 -3 -26 -6z"/>
<path d="M545 850 c27 -12 35 -12 35 0 0 6 -12 10 -27 9 -25 0 -26 -1 -8 -9z"/>
<path d="M307 813 c-10 -9 -9 -41 1 -47 5 -3 9 8 10 24 1 32 -1 34 -11 23z"/>
<path d="M545 800 c4 -13 -1 -24 -20 -36 -35 -23 -25 -29 14 -9 33 17 42 49
15 59 -12 4 -14 1 -9 -14z"/>
<path d="M184 799 c-34 -10 -61 -35 -50 -46 4 -4 10 -3 14 3 4 6 22 19 40 28
17 9 32 19 32 21 0 3 -1 5 -2 4 -2 0 -17 -5 -34 -10z"/>
<path d="M690 801 c-8 -6 -18 -7 -22 -5 -4 3 -8 1 -8 -5 0 -5 5 -13 11 -16 5
-4 15 -18 20 -32 8 -22 12 -23 25 -12 15 12 14 15 -5 27 -16 11 -18 18 -10 33
11 21 10 22 -11 10z"/>
<path d="M745 801 c-6 -11 25 -31 48 -31 8 0 20 6 26 14 9 11 8 15 -5 20 -24
9 -62 7 -69 -3z"/>
<path d="M883 799 c7 -20 -10 -39 -34 -39 -27 0 -33 -18 -15 -45 16 -24 56
-35 56 -15 0 6 -6 10 -14 10 -7 0 -19 6 -25 14 -10 12 -6 15 19 21 38 8 49 31
25 53 -16 15 -17 15 -12 1z"/>
<path d="M384 775 c-17 -13 -17 -14 -2 -15 9 0 20 5 23 11 11 17 0 20 -21 4z"/>
<path d="M629 734 c-17 -17 -58 -23 -177 -29 -73 -3 -84 -1 -95 16 -15 24 -27
24 -27 0 0 -27 22 -41 66 -40 21 0 58 0 82 -2 24 -1 48 3 55 10 6 6 20 11 31
11 16 0 17 -3 8 -12 -16 -16 -15 -50 1 -72 12 -17 14 -15 15 15 1 55 5 69 17
69 14 0 50 38 44 45 -3 2 -12 -2 -20 -11z"/>
<path d="M223 727 c6 -16 -2 -21 -30 -18 -7 1 -13 -2 -13 -8 0 -12 103 -12
122 0 9 6 6 9 -12 9 -14 0 -36 8 -50 17 -22 16 -23 16 -17 0z"/>
<path d="M691 649 c-12 -19 -26 -49 -32 -68 -13 -39 -3 -51 48 -51 35 0 98 47
76 57 -7 2 -13 11 -13 19 0 17 -5 17 -48 5 -37 -11 -42 0 -16 37 9 13 14 26
11 29 -3 3 -15 -10 -26 -28z"/>
<path d="M115 648 c-9 -14 -11 -24 -5 -26 6 -2 4 -12 -5 -25 -26 -38 -14 -87
23 -87 10 0 9 7 -4 30 -18 29 -17 30 4 59 22 31 30 71 13 71 -6 0 -17 -10 -26
-22z"/>
<path d="M864 607 c-7 -20 3 -37 22 -37 18 0 17 10 -1 34 -13 17 -15 17 -21 3z"/>
<path d="M252 579 c-29 -11 -28 -26 4 -55 30 -29 54 -30 85 -5 22 18 23 21 9
35 -22 22 -71 35 -98 25z"/>
<path d="M427 556 c-5 -15 -6 -31 -3 -34 8 -8 18 25 14 45 -3 13 -6 10 -11
-11z"/>
<path d="M922 535 c-20 -11 -21 -14 -7 -25 21 -18 19 -39 -7 -49 -15 -5 -18
-10 -9 -15 17 -11 52 24 49 48 -1 12 1 26 5 33 11 17 -5 21 -31 8z"/>
<path d="M117 479 c18 -19 24 -20 37 -9 22 17 21 34 -1 21 -11 -6 -25 -6 -38
1 -19 10 -19 9 2 -13z"/>
<path d="M610 494 c0 -13 54 -89 69 -99 6 -3 11 2 11 12 0 11 -18 37 -40 58
-22 21 -40 34 -40 29z"/>
<path d="M386 451 c-10 -11 -16 -28 -14 -38 3 -14 8 -11 22 15 20 40 17 50 -8
23z"/>
<path d="M167 434 c-3 -4 -2 -17 4 -31 23 -60 -4 -123 -43 -102 -26 14 -38 1
-15 -16 14 -10 23 -10 42 -1 14 6 25 15 25 20 0 5 9 1 20 -9 11 -10 20 -13 20
-7 0 6 -5 14 -11 18 -6 3 -9 20 -7 36 5 29 -24 103 -35 92z"/>
<path d="M808 423 c-20 -23 -32 -63 -20 -63 13 0 36 29 29 37 -4 3 -2 14 4 24
12 24 7 24 -13 2z"/>
<path d="M875 410 c3 -5 10 -10 16 -10 5 0 9 5 9 10 0 6 -7 10 -16 10 -8 0
-12 -4 -9 -10z"/>
<path d="M107 383 c-9 -2 -15 -9 -12 -14 9 -14 32 -11 39 6 6 15 4 16 -27 8z"/>
<path d="M850 379 c0 -5 5 -7 10 -4 6 3 10 8 10 11 0 2 -4 4 -10 4 -5 0 -10
-5 -10 -11z"/>
<path d="M247 340 c-3 -10 1 -24 9 -31 11 -9 14 -7 14 14 0 32 -16 44 -23 17z"/>
<path d="M450 332 c-45 -22 -63 -68 -35 -88 25 -19 55 -18 55 2 0 22 24 12 28
-12 2 -10 10 -24 19 -31 33 -26 -20 -70 -92 -76 l-40 -4 46 -1 c26 -1 53 4 65
12 10 8 29 12 42 9 12 -3 28 0 36 6 10 8 21 8 40 1 15 -5 39 -10 54 -10 34 0
128 53 142 80 16 30 2 24 -46 -20 -48 -44 -79 -55 -127 -46 -48 10 -73 32 -58
50 7 8 11 25 9 37 -4 29 18 36 25 9 5 -18 9 -20 26 -10 34 18 28 66 -11 90
-42 26 -130 27 -178 2z"/>
<path d="M286 169 c15 -17 82 -45 88 -37 2 1 -21 15 -51 29 -42 20 -50 22 -37
8z"/>
</g>
</svg>
